<?xml version="1.0" encoding="UTF-8"?>
<svg version="1.1" xmlns="http://www.w3.org/2000/svg" width="752" height="176">
  <path d="M0 0 C21.58081127 16.62882153 36.65507677 37.8712527 40.25 65.3125 C40.51130724 67.54036951 40.76549845 69.7691497 41 72 C41.49628906 71.31035156 41.99257812 70.62070313 42.50390625 69.91015625 C46.29767286 64.66223243 50.13949058 59.47296295 54.15234375 54.390625 C55.52795006 52.61077075 56.86902488 50.80412262 58.19140625 48.984375 C61.94071539 43.83303994 65.43237995 39.27797045 70.4609375 35.3515625 C72.12695715 33.88850971 73.17244887 32.41950072 74.375 30.5625 C77.82414235 25.40028362 83.09849865 20.96716712 89 19 C89 18.34 89 17.68 89 17 C94.54387044 12.164513 101.5508692 9.16159388 108.11303711 5.97338867 C112.64531472 3.74866615 116.83733806 1.32932139 120.91015625 -1.67578125 C126.53512866 -5.2400161 131.04153729 -6.3812585 137.69921875 -6.3984375 C138.41551956 -6.40130768 139.13182037 -6.40417786 139.86982727 -6.40713501 C141.37831416 -6.40916471 142.88682803 -6.40371184 144.39526367 -6.39111328 C146.66452327 -6.37516151 148.93196972 -6.39093616 151.20117188 -6.41015625 C165.34788236 -6.43670319 176.49068536 -3.19652828 189.3125 2.875 C190.43978516 3.39191406 191.56707031 3.90882812 192.72851562 4.44140625 C198.61298458 7.18818364 203.8537732 10.04296885 209 14 C210.4540625 14.8353125 210.4540625 14.8353125 211.9375 15.6875 C212.618125 16.120625 213.29875 16.55375 214 17 C214 17.66 214 18.32 214 19 C214.56074219 19.226875 215.12148438 19.45375 215.69921875 19.6875 C223.92527038 24.38012028 229.89598699 34.21996993 235 42 C235.70962891 42.99773438 235.70962891 42.99773438 236.43359375 44.015625 C240.05929981 49.30894067 241.59294596 54.77693173 243 61 C243.66 61 244.32 61 245 61 C245.11214844 60.36835937 245.22429687 59.73671875 245.33984375 59.0859375 C248.69373241 43.8728739 260.60279247 29.33412743 272 19 C272.66 19 273.32 19 274 19 C274.25523437 18.38640625 274.51046875 17.7728125 274.7734375 17.140625 C276.18317242 14.68032329 277.13342063 14.03907968 279.625 12.75 C280.42808594 12.33105469 281.23117187 11.91210938 282.05859375 11.48046875 C283.02925781 10.99191406 283.99992187 10.50335937 285 10 C286.22023778 9.37145413 287.44027663 8.74252196 288.66015625 8.11328125 C305.3835769 -0.44518732 319.65625961 -6.37848271 338.65600586 -6.42553711 C340.92996205 -6.43746048 343.20122096 -6.48678602 345.47460938 -6.53710938 C354.0448167 -6.63214316 360.68343037 -5.84696381 368 -1 C369.51953172 -0.08117731 371.04023339 0.83571548 372.5625 1.75 C373.77486328 2.49443359 373.77486328 2.49443359 375.01171875 3.25390625 C379.62327539 5.94850209 384.3651262 8.39324787 389.11157227 10.84082031 C396.3851083 14.62469261 396.3851083 14.62469261 399 17 C399 17.66 399 18.32 399 19 C399.57878906 19.27457031 400.15757812 19.54914062 400.75390625 19.83203125 C406.66441031 22.90549336 411.0487115 26.67885763 414.671875 32.234375 C416.1738571 34.23112768 417.81089119 35.61483695 419.75 37.1875 C425.13061133 41.71004011 428.9157831 47.32786176 433 53 C434.57917749 55.10728742 436.16242581 57.21153117 437.75 59.3125 C440.89328929 63.50171743 443.98359683 67.71865357 447 72 C447.08636719 71.1028125 447.17273438 70.205625 447.26171875 69.28125 C449.84995995 46.29576852 459.35735377 23.21643846 477.5625 8.125 C479.36518586 6.73715817 481.17705998 5.36112855 483 4 C483.73605469 3.4121875 484.47210937 2.824375 485.23046875 2.21875 C501.61336143 -10.71010921 526.72374844 -11.01132426 546.55419922 -8.70263672 C557.33881653 -7.01391793 567.28509498 -2.84562814 577 2 C577.68513672 2.33660645 578.37027344 2.67321289 579.07617188 3.02001953 C591.8265932 9.38631797 601.11535802 17.43609214 609.3125 29.1875 C609.88943604 29.99501709 609.88943604 29.99501709 610.47802734 30.81884766 C611.79787596 32.82331452 612.90491563 34.86317714 614 37 C614.52948242 38.02722168 615.05896484 39.05444336 615.60449219 40.11279297 C621.02858287 51.77125957 620.85260356 63.53482735 620.67236328 76.19189453 C620.62489685 79.75774878 620.63131443 83.32062519 620.64453125 86.88671875 C620.63338194 89.19012171 620.61916484 91.49351231 620.6015625 93.796875 C620.60338531 94.84405701 620.60520813 95.89123901 620.60708618 96.97015381 C620.22879257 116.98314507 608.25536715 133.17092604 594.61010742 146.82885742 C590.93885825 150.351003 587.38306057 152.84886906 582.671875 154.859375 C579.45652317 156.23201058 576.45289966 157.90516941 573.375 159.5625 C559.24449645 166.49128773 545.75048089 167.6318696 530.22607422 167.46655273 C527.23999993 167.43740238 524.25568956 167.44603083 521.26953125 167.45898438 C508.32695741 167.44633982 497.03865404 166.57811991 485.4375 160.375 C480.83327266 157.917881 480.83327266 157.917881 476 156 C476 155.34 476 154.68 476 154 C475.3296875 153.80921875 474.659375 153.6184375 473.96875 153.421875 C469.77707718 151.41428433 466.83424269 148.44559102 463.5 145.25 C462.84902344 144.6415625 462.19804688 144.033125 461.52734375 143.40625 C457.7225225 139.80896445 454.17186573 136.17222339 451 132 C451 131.34 451 130.68 451 130 C450.34 130 449.68 130 449 130 C447.77752292 128.23828491 446.65040309 126.41035203 445.5625 124.5625 C444.84548978 123.36614308 444.12664289 122.17088558 443.40625 120.9765625 C442.82617188 120.01218262 442.82617188 120.01218262 442.234375 119.02832031 C436.34894633 109.35740628 430.15337908 99.9431428 423.25 90.96875 C421.17532749 88.23133488 419.18917344 85.45234548 417.21875 82.64013672 C412.57808146 76.02046357 407.73352426 69.73352426 402 64 C402.59748047 65.07314453 402.59748047 65.07314453 403.20703125 66.16796875 C412.10562746 82.90425797 413.1963628 99.82180914 407.74072266 117.83886719 C404.33231005 127.78325359 399.09483019 137.23364267 392 145 C391.24976563 145.83015625 390.49953125 146.6603125 389.7265625 147.515625 C384.03168856 153.51590228 377.02849103 160.50852211 368.7421875 162.55859375 C368.16726563 162.70425781 367.59234375 162.84992188 367 163 C366.67 163.66 366.34 164.32 366 165 C360.52654952 167.54152533 355.02435251 167.3061479 349.1171875 167.30078125 C347.54120285 167.30720894 347.54120285 167.30720894 345.93338013 167.31376648 C343.71275552 167.31949828 341.49211213 167.32001853 339.27148438 167.31567383 C335.90721756 167.31253011 332.54384471 167.33593175 329.1796875 167.36132812 C327.01302193 167.36360313 324.84635402 167.36430368 322.6796875 167.36328125 C321.68863007 167.372491 320.69757263 167.38170074 319.67648315 167.39118958 C306.2190133 167.30394081 293.35140342 162.82852215 281.4375 156.75 C278.742747 155.37812574 276.85642754 154.65557353 274 154 C267.41571473 151.45124441 262.21513036 144.50274943 258 139 C258 138.34 258 137.68 258 137 C257.34 137 256.68 137 256 137 C254.52734375 135.20703125 254.52734375 135.20703125 252.9375 132.8125 C252.41027344 132.03519531 251.88304687 131.25789062 251.33984375 130.45703125 C249.96190733 127.93014494 249.40767177 125.83357045 249 123 C248.34 123 247.68 123 247 123 C246.67 121.68 246.34 120.36 246 119 C244.68 119 243.36 119 242 119 C241.67 120.32 241.34 121.64 241 123 C240.34 123 239.68 123 239 123 C238.773125 123.825 238.54625 124.65 238.3125 125.5 C236.75058943 129.66509486 234.77149893 133.5000943 232 137 C231.34 137 230.68 137 230 137 C229.73832031 137.5775 229.47664063 138.155 229.20703125 138.75 C225.05260646 146.49417048 217.83217688 153.15077318 209.4375 155.8125 C206.46155164 156.84055489 203.77471004 158.02650046 200.9375 159.375 C191.94622647 163.53238776 182.03015286 167.09995136 172.02954102 167.14526367 C171.06826797 167.15164352 170.10699493 167.15802338 169.11659241 167.16459656 C167.57581276 167.16626579 167.57581276 167.16626579 166.00390625 167.16796875 C164.93760483 167.17129715 163.87130341 167.17462555 162.77268982 167.17805481 C160.52090892 167.18311018 158.26912055 167.18546356 156.01733398 167.18530273 C152.57848752 167.18748983 149.13996165 167.2056622 145.70117188 167.22460938 C143.51041776 167.22754348 141.31966213 167.22952816 139.12890625 167.23046875 C138.10374405 167.23765427 137.07858185 167.24483978 136.02235413 167.25224304 C131.00282093 167.23623014 126.63862243 167.17649236 122 165 C121.67 164.34 121.34 163.68 121 163 C120.09636719 162.69964844 119.19273437 162.39929688 118.26171875 162.08984375 C102.82384169 156.93155908 90.87951222 141.00902443 83.875 127 C76.1404303 109.55650992 74.67902331 92.15513752 81 74 C82.4978772 70.5587014 84.13162581 67.25434028 86 64 C84.58913785 65.65174105 83.1786039 67.30376334 81.76953125 68.95703125 C80.6392138 70.26201144 79.4921714 71.55281109 78.32421875 72.82421875 C74.03348962 77.52922517 70.56148061 82.54002983 67.09375 87.875 C65.04499156 90.93284842 62.87330831 93.83669909 60.625 96.75 C54.81223217 104.3967963 49.90918577 112.59279193 44.91113281 120.78466797 C43.94685929 122.3601975 42.9737379 123.93030219 42 125.5 C41.46375 126.3765625 40.9275 127.253125 40.375 128.15625 C39.92125 128.7646875 39.4675 129.373125 39 130 C38.34 130 37.68 130 37 130 C36.6596875 130.81210937 36.6596875 130.81210937 36.3125 131.640625 C34.60250202 134.71454995 32.37295298 137.18239551 30 139.75 C29.51668213 140.2749707 29.03336426 140.79994141 28.53540039 141.34082031 C24.11524273 146.04510527 19.3883267 150.41481198 14 154 C13.34 154 12.68 154 12 154 C12 154.66 12 155.32 12 156 C-12.70131716 167.06255308 -12.70131716 167.06255308 -21.33105469 167.17700195 C-22.18004333 167.18983719 -23.02903198 167.20267242 -23.90374756 167.21589661 C-25.27397064 167.22697701 -25.27397064 167.22697701 -26.671875 167.23828125 C-27.62709045 167.246353 -28.58230591 167.25442474 -29.56646729 167.26274109 C-31.5939351 167.27657008 -33.62142608 167.28729753 -35.64892578 167.29516602 C-37.69489504 167.30660231 -39.74083648 167.32691883 -41.78662109 167.35668945 C-57.57704335 167.58622377 -72.28272581 166.90578822 -86.4375 159.0625 C-87.10378418 158.70752441 -87.77006836 158.35254883 -88.45654297 157.98681641 C-89.74877798 157.29638379 -91.03778264 156.599855 -92.32275391 155.89599609 C-93.69170114 155.16469532 -95.09774431 154.50319814 -96.51171875 153.86328125 C-112.15651834 146.54695168 -123.92528648 128.74951072 -129.99493408 113.17980957 C-133.32451446 103.45280681 -132.89257792 93.19006048 -132.78222656 83.02783203 C-132.75004806 79.50526081 -132.7820625 75.98727628 -132.8203125 72.46484375 C-132.86234983 49.80003057 -126.79108178 34.31646426 -111.37109375 17.3515625 C-105.43249811 11.46188445 -99.45146371 7.26679043 -92 3.4375 C-90.61494263 2.72025757 -90.61494263 2.72025757 -89.2019043 1.98852539 C-64.397445 -10.57611313 -24.42028238 -17.36822064 0 0 Z M-73 35 C-73.928125 35.556875 -74.85625 36.11375 -75.8125 36.6875 C-84.92399556 43.2978007 -92.49333138 52.30947232 -94.68359375 63.67578125 C-94.78800781 64.44277344 -94.89242187 65.20976563 -95 66 C-95.15597656 67.06605469 -95.31195313 68.13210937 -95.47265625 69.23046875 C-96.75322599 81.02911617 -95.50981038 94.71346022 -88.29296875 104.6171875 C-86.39637341 106.64557044 -84.55418097 107.92455538 -82 109 C-81.01 109 -80.02 109 -79 109 C-78.814375 109.598125 -78.62875 110.19625 -78.4375 110.8125 C-76.35923521 113.97507685 -73.49104222 114.9016342 -70 116 C-67.04476783 116.53263104 -64.12257186 116.74121936 -61.125 116.875 C-59.93898193 116.93675415 -59.93898193 116.93675415 -58.72900391 116.99975586 C-52.87162385 117.20312873 -48.37274696 116.48738285 -43 114 C-43 113.67 -43 113.34 -43 113 C-44.09957031 112.79246094 -45.19914062 112.58492188 -46.33203125 112.37109375 C-56.68996343 110.26877022 -65.54491632 107.58286041 -73.16796875 99.78125 C-74.8131199 97.76763326 -74.8131199 97.76763326 -77 98 C-77.28875 96.9275 -77.5775 95.855 -77.875 94.75 C-78.77539743 91.23712508 -78.77539743 91.23712508 -80.0234375 89.20703125 C-83.53531924 81.27017852 -82.73333581 69.06080979 -80 61 C-75.76233171 52.22401803 -68.03499868 44.69613582 -59 41 C-58.24332031 40.66226563 -57.48664063 40.32453125 -56.70703125 39.9765625 C-45.24054076 35.84002192 -32.60893175 38.06106802 -21.875 43.0625 C-10.17835455 49.10874631 -1.17560226 58.0734595 3.28125 70.6015625 C4.29910526 74.055 5.21727415 77.4861501 6 81 C6.21914062 81.95777344 6.43828125 82.91554687 6.6640625 83.90234375 C7.5732518 92.28591483 5.66089379 102.43673909 0.875 109.4375 C-0.38492578 110.98473103 -1.67789179 112.50555472 -3 114 C-3.68320313 114.86238281 -4.36640625 115.72476563 -5.0703125 116.61328125 C-10.26774694 122.90050034 -15.59027103 126.66719404 -23 130 C-24.28970703 130.58394531 -24.28970703 130.58394531 -25.60546875 131.1796875 C-30.98349776 133.46430757 -36.26795874 134.89057266 -42 136 C-42 136.33 -42 136.66 -42 137 C-25.47290138 136.29099725 -10.38715324 133.29338022 2 121.5625 C3.03464283 120.40505865 4.03524983 119.21631137 5 118 C5.54140625 117.32324219 6.0828125 116.64648438 6.640625 115.94921875 C14.56425625 105.12153818 15.59123007 91.96887929 13.70703125 78.98046875 C11.915849 69.36971667 7.97650128 61.28950915 3 53 C2.34 53 1.68 53 1 53 C0.62875 52.1646875 0.62875 52.1646875 0.25 51.3125 C-1.22924818 48.57589087 -2.93467439 46.32349131 -5 44 C-5.66 44 -6.32 44 -7 44 C-7 43.34 -7 42.68 -7 42 C-20.06186451 30.32257274 -35.59875822 27.19398215 -52.5078125 27.80761719 C-60.00302717 28.38620547 -66.67606729 31.01040487 -73 35 Z M499 39 C497.87464844 39.76957031 497.87464844 39.76957031 496.7265625 40.5546875 C496.15679688 41.03164063 495.58703125 41.50859375 495 42 C495 42.66 495 43.32 495 44 C494.34 44 493.68 44 493 44 C491.41808182 45.48426233 491.41808182 45.48426233 489.875 47.375 C489.33617187 48.00148438 488.79734375 48.62796875 488.2421875 49.2734375 C486.80532853 50.91608428 486.80532853 50.91608428 487 53 C486.34 53 485.68 53 485 53 C475.68390564 68.99889839 470.91943913 85.32699606 475 103.875 C478.94205199 116.05279441 488.57810163 124.80610973 499.5 130.75 C509.0326388 135.50525461 519.3774384 137.23301103 530 137 C530 136.67 530 136.34 530 136 C529.23816406 135.82984375 528.47632813 135.6596875 527.69140625 135.484375 C521.07558916 133.93159895 515.04002776 132.12157187 509 129 C508.19949219 128.60296875 507.39898438 128.2059375 506.57421875 127.796875 C499.25295416 123.83451096 494.21717134 118.41470711 489 112 C488.46117187 111.38769531 487.92234375 110.77539062 487.3671875 110.14453125 C482.10720011 103.26245195 480.46213484 92.24087818 481.19189453 83.7734375 C483.58194326 68.81438432 490.54315658 56.32185956 502.75 47.25 C514.17836075 39.74741203 526.22923973 36.50256248 539.88671875 38.5 C550.64253399 41.04481396 559.62209546 48.13522022 566 57 C571.2406892 65.83046533 570.76609559 77.94911709 568.6796875 87.65234375 C567.81224944 90.64849474 566.52959442 93.28844625 565 96 C565 96.66 565 97.32 565 98 C564.34 98 563.68 98 563 98 C562.34 98.70125 561.68 99.4025 561 100.125 C552.60440853 108.64121778 542.30404011 110.77066494 531 113 C536.46654229 117.65668418 542.00359207 117.14423044 548.8125 116.8125 C549.96588867 116.78446289 549.96588867 116.78446289 551.14257812 116.75585938 C556.64720274 116.49107996 561.50833858 115.35669877 566 112 C566.495 110.515 566.495 110.515 567 109 C568.33038449 108.6550855 569.66457061 108.32483418 571 108 C575.82971518 105.33872837 578.08138108 103.18027108 580 98 C580.56825063 95.5617615 581.05132171 93.12797284 581.47265625 90.66015625 C582 88 582 88 583.0703125 84.640625 C585.93159745 73.43592931 582.8777721 60.87602467 577.375 50.9375 C572.23810549 42.86342075 565.9431257 36.53757652 557 33 C556.14792969 32.64164063 555.29585937 32.28328125 554.41796875 31.9140625 C535.15015918 23.95868578 516.0521034 27.31260329 499 39 Z M104 46 C104.99 46.495 104.99 46.495 106 47 C108.57262544 45.96202742 111.05484416 44.86480054 113.5625 43.6875 C119.32446163 41.09229672 124.67308412 38.73883393 131 38 C132.6396875 37.78537109 132.6396875 37.78537109 134.3125 37.56640625 C151.47929986 35.83184418 166.02782003 39.91326971 180 50 C180.60714844 50.3815625 181.21429688 50.763125 181.83984375 51.15625 C188.24512395 55.68787681 190.97550384 63.24710156 194.1496582 70.17236328 C194.99260158 72.0429512 194.99260158 72.0429512 196.08520508 73.94262695 C199.5130039 81.65174375 198.03536608 95.47951409 195.375 103.25 C194.24609375 105.72265625 194.24609375 105.72265625 193 108 C192.59910156 108.78246094 192.19820313 109.56492187 191.78515625 110.37109375 C186.95033894 118.68137393 179.29822216 124.40964018 170.0625 127 C160.49157816 128.90675545 151.05834113 128.9876393 142 125 C140.66318744 124.00465586 139.32926698 123.00539896 138 122 C137.34 122 136.68 122 136 122 C135.67 121.01 135.34 120.02 135 119 C134.38125 118.484375 133.7625 117.96875 133.125 117.4375 C126.18633813 109.47844667 127.69100286 97.86501992 128 88 C127.34 88 126.68 88 126 88 C121.90089874 95.08942922 122.48137787 104.16137615 124.33984375 111.890625 C125.19458208 114.62174157 126.31222703 116.68712593 128 119 C128.40734375 119.61101562 128.8146875 120.22203125 129.234375 120.8515625 C131.01268364 123.50595171 131.01268364 123.50595171 133 126 C133.66 126 134.32 126 135 126 C135 126.66 135 127.32 135 128 C146.37101233 134.09161375 158.20970608 136.14873851 170.8671875 133.0546875 C183.37400546 128.77816265 192.43019326 123.07250968 198.75 111.1875 C205.39583912 96.75528171 205.83930876 82.60244331 200.50390625 67.69921875 C198.5291304 62.8417831 196.34434021 58.07989891 193 54 C192.34 54 191.68 54 191 54 C191 53.34 191 52.68 191 52 C190.34 52 189.68 52 189 52 C188.76023437 51.25621094 188.52046875 50.51242188 188.2734375 49.74609375 C184.36269759 41.31281107 173.20441796 36.3388796 165 33 C144.24889516 25.9357941 120.6555794 32.91347333 104 46 Z M301 47 C299.74258944 49.60653999 299.74258944 49.60653999 299 52 C298.34 52 297.68 52 297 52 C297 52.66 297 53.32 297 54 C296.01 54.33 295.02 54.66 294 55 C292.68757019 57.11778447 291.57426722 59.14037243 290.5 61.375 C290.19247803 62.01058838 289.88495605 62.64617676 289.56811523 63.30102539 C283.03640878 77.17415397 281.92410394 90.95182276 286.67578125 105.70703125 C291.45225812 117.58481886 298.52769426 125.35461418 310.25 130.375 C321.33157024 134.89957126 333.47619665 135.93285254 344.9375 131.8671875 C347.70010495 130.70563769 350.37685561 129.44963242 353 128 C353 127.34 353 126.68 353 126 C353.99 125.67 354.98 125.34 356 125 C358.07706482 122.21829104 358.07706482 122.21829104 360 119 C360.53625 118.2575 361.0725 117.515 361.625 116.75 C365.52162578 108.95674845 365.53616881 100.44892843 364 92 C363.03879627 89.72990826 363.03879627 89.72990826 362 88 C361.34 88 360.68 88 360 88 C360.05220703 89.66675781 360.05220703 89.66675781 360.10546875 91.3671875 C360.53125513 110.58593109 360.53125513 110.58593109 355.6875 116.640625 C354.50504903 117.80963902 353.25765344 118.91229972 352 120 C352 120.66 352 121.32 352 122 C351.319375 122.268125 350.63875 122.53625 349.9375 122.8125 C347.75638175 123.69422865 345.59198246 124.61755155 343.4375 125.5625 C333.43147624 129.74683721 322.01577046 128.9428 312 125 C304.43036008 120.78474954 298.95183335 115.7130638 295 108 C294.58878906 107.24847656 294.17757813 106.49695313 293.75390625 105.72265625 C289.08787493 95.50259456 288.72694655 81.55177927 292.62109375 71.0390625 C295.51309533 64.34024251 298.5595503 58.97291106 304 54 C304.71800781 53.30777344 305.43601562 52.61554687 306.17578125 51.90234375 C310.80997658 47.64091733 315.14652645 44.34345414 321 42 C321.5767749 41.76079834 322.1535498 41.52159668 322.74780273 41.27514648 C338.16753088 35.12492934 355.93882076 35.7164335 371.1875 42 C372.35667969 42.515625 373.52585937 43.03125 374.73046875 43.5625 C377.78208238 44.90418914 380.82324561 45.99732183 384 47 C374.49041553 36.77271104 359.84812757 31.5151938 346.1171875 30.796875 C329.14390752 30.48203839 313.34238628 34.44060474 301 47 Z M101 48 C100.67 48.66 100.34 49.32 100 50 C100.99 49.67 101.98 49.34 103 49 C102.34 48.67 101.68 48.34 101 48 Z M385 48 C385.33 48.66 385.66 49.32 386 50 C386.66 49.67 387.32 49.34 388 49 C387.01 48.67 386.02 48.34 385 48 Z M-45 69 C-45 69.33 -45 69.66 -45 70 C-43.35 70 -41.7 70 -40 70 C-40 69.67 -40 69.34 -40 69 C-41.65 69 -43.3 69 -45 69 Z M528 69 C528 69.33 528 69.66 528 70 C529.65 70 531.3 70 533 70 C533 69.67 533 69.34 533 69 C531.35 69 529.7 69 528 69 Z M132 78 C129.7226499 80.81509993 129.7226499 80.81509993 130 84 C131.32 83.34 132.64 82.68 134 82 C134 81.34 134 80.68 134 80 C134.66 80 135.32 80 136 80 C136 79.34 136 78.68 136 78 C143.42640926 75.83959003 150.40655875 75.04040226 158 77 C155.86538846 74.45566445 154.63440313 73.13488043 151.3359375 72.43359375 C143.91363905 72.4433857 138.1423932 73.65627573 132 78 Z M330 77 C330.71285156 76.83886719 331.42570312 76.67773438 332.16015625 76.51171875 C338.85639548 75.30510618 345.6884305 75.27067265 352 78 C352 78.66 352 79.32 352 80 C352.66 80 353.32 80 354 80 C354.66 81.32 355.32 82.64 356 84 C356.66 84 357.32 84 358 84 C357.96219702 81.62766389 357.96219702 81.62766389 357 79 C351.65147574 74.74549207 346.75459378 72.71118323 339.9375 72.625 C338.91527344 72.59664063 337.89304687 72.56828125 336.83984375 72.5390625 C333.35207053 73.10516599 332.20860103 74.32001889 330 77 Z M163 82 C164 84 164 84 164 84 Z M324 82 C325 84 325 84 325 84 Z M164 84 C165 87 165 87 165 87 Z M323 84 C324 87 324 87 324 87 Z M128 85 C129 88 129 88 129 88 Z M359 85 C360 88 360 88 360 88 Z M165 87 C165 89.31 165 91.62 165 94 C165.33 94 165.66 94 166 94 C166 91.69 166 89.38 166 87 C165.67 87 165.34 87 165 87 Z M322 87 C322 89.31 322 91.62 322 94 C322.33 94 322.66 94 323 94 C323 91.69 323 89.38 323 87 C322.67 87 322.34 87 322 87 Z M243 113 C242.67 114.32 242.34 115.64 242 117 C243.32 117 244.64 117 246 117 C245.67 115.68 245.34 114.36 245 113 C244.34 113 243.68 113 243 113 Z " fill="#C79C65" transform="translate(132,9)"/>
  <path d="M0 0 C15.99064587 13.88044333 26.09703062 32.15939598 31.125 52.625 C31.35058594 53.40101562 31.57617188 54.17703125 31.80859375 54.9765625 C33.73205091 62.06019093 33.29758818 69.34753154 33.125 76.625 C37.99063937 72.23494944 41.31801958 67.09731489 44.875 61.625 C46.1216509 59.73258198 47.36904565 57.84065376 48.6171875 55.94921875 C49.21885742 55.03446777 49.82052734 54.1197168 50.44042969 53.17724609 C56.27487291 44.33764182 62.33222815 35.75955394 69.125 27.625 C69.71023437 26.91601562 70.29546875 26.20703125 70.8984375 25.4765625 C87.31256887 6.09154762 112.71461248 -10.2917484 138.47070312 -12.58374023 C164.3564469 -13.64501421 186.79220818 -7.07695815 206.125 10.625 C206.96546875 11.38425781 207.8059375 12.14351562 208.671875 12.92578125 C224.90717028 28.3291437 235.73566773 47.90790016 236.375 70.5625 C236.13859506 91.20065104 229.1584133 109.16199896 215.0625 124.25 C199.37917247 139.48092385 178.49668686 145.12489323 157.10742188 144.98046875 C150.1050871 144.81547957 143.75115544 143.99808823 137.125 141.625 C136.28324219 141.35816406 135.44148438 141.09132812 134.57421875 140.81640625 C122.41840487 136.56281664 112.25877846 127.95522481 106.3125 116.5625 C101.59545748 106.33706901 100.30943558 96.01597656 104.01953125 85.19921875 C108.96228883 73.68940517 115.77016941 64.30241529 127.125 58.625 C130.125 57.8125 130.125 57.8125 132.125 57.625 C131.73828125 58.13289063 131.3515625 58.64078125 130.953125 59.1640625 C129.86664135 60.60015723 128.78762392 62.04192116 127.71484375 63.48828125 C126.47598382 65.15328464 125.21163168 66.79933069 123.9375 68.4375 C118.23732774 78.46194087 117.35730374 90.84883101 120.25 101.9375 C123.63468997 111.52483114 129.42655217 118.07048215 138.35546875 122.80859375 C152.81690171 129.6037249 166.22710968 128.32308989 181.125 123.625 C192.31404134 119.51227129 201.62943113 111.20724124 207.125 100.625 C213.37912637 86.50223094 216.27985101 69.34139823 211.625 54.1875 C204.214226 35.95959622 192.28871896 21.54025689 174.3828125 12.9765625 C155.40671934 5.10398668 136.64661616 4.92884578 117.4375 11.8125 C106.03583449 16.53383244 96.38272992 23.56939322 87.125 31.625 C86.28195313 32.34558594 85.43890625 33.06617188 84.5703125 33.80859375 C72.7776904 44.11336166 63.40683678 56.09925598 54.125 68.625 C53.6815625 69.22183594 53.238125 69.81867188 52.78125 70.43359375 C47.43440238 77.66854694 42.48700652 85.11944199 37.625 92.6875 C21.55151054 117.59696848 3.98297679 133.41125176 -24.7734375 141.43359375 C-47.42414903 146.24936087 -71.84097381 142.62688981 -91.4375 130.34765625 C-110.1947255 117.09134785 -120.7412353 99.12056876 -125.47583008 76.95288086 C-128.93467137 56.78159539 -123.35442313 36.01220957 -112.22265625 19.1171875 C-110.53767213 16.84146777 -108.76676658 14.73165285 -106.875 12.625 C-106.14667969 11.80386719 -105.41835937 10.98273437 -104.66796875 10.13671875 C-92.24938612 -3.0843571 -75.50486789 -10.81179895 -57.875 -14.375 C-56.76125 -14.601875 -55.6475 -14.82875 -54.5 -15.0625 C-34.32690553 -16.80155987 -16.12679313 -12.69320393 0 0 Z M-73.875 20.625 C-74.803125 21.181875 -75.73125 21.73875 -76.6875 22.3125 C-85.79899556 28.9228007 -93.36833138 37.93447232 -95.55859375 49.30078125 C-95.66300781 50.06777344 -95.76742187 50.83476563 -95.875 51.625 C-96.03097656 52.69105469 -96.18695313 53.75710937 -96.34765625 54.85546875 C-97.62822599 66.65411617 -96.38481038 80.33846022 -89.16796875 90.2421875 C-87.27137341 92.27057044 -85.42918097 93.54955538 -82.875 94.625 C-81.885 94.625 -80.895 94.625 -79.875 94.625 C-79.689375 95.223125 -79.50375 95.82125 -79.3125 96.4375 C-77.23423521 99.60007685 -74.36604222 100.5266342 -70.875 101.625 C-67.91976783 102.15763104 -64.99757186 102.36621936 -62 102.5 C-60.81398193 102.56175415 -60.81398193 102.56175415 -59.60400391 102.62475586 C-53.74662385 102.82812873 -49.24774696 102.11238285 -43.875 99.625 C-43.875 99.295 -43.875 98.965 -43.875 98.625 C-44.97457031 98.41746094 -46.07414062 98.20992188 -47.20703125 97.99609375 C-57.56496343 95.89377022 -66.41991632 93.20786041 -74.04296875 85.40625 C-75.6881199 83.39263326 -75.6881199 83.39263326 -77.875 83.625 C-78.16375 82.5525 -78.4525 81.48 -78.75 80.375 C-79.65039743 76.86212508 -79.65039743 76.86212508 -80.8984375 74.83203125 C-84.41031924 66.89517852 -83.60833581 54.68580979 -80.875 46.625 C-76.63733171 37.84901803 -68.90999868 30.32113582 -59.875 26.625 C-59.11832031 26.28726563 -58.36164063 25.94953125 -57.58203125 25.6015625 C-46.11554076 21.46502192 -33.48393175 23.68606802 -22.75 28.6875 C-11.05335455 34.73374631 -2.05060226 43.6984595 2.40625 56.2265625 C3.42410526 59.68 4.34227415 63.1111501 5.125 66.625 C5.34414062 67.58277344 5.56328125 68.54054687 5.7890625 69.52734375 C6.6982518 77.91091483 4.78589379 88.06173909 0 95.0625 C-1.25992578 96.60973103 -2.55289179 98.13055472 -3.875 99.625 C-4.55820313 100.48738281 -5.24140625 101.34976563 -5.9453125 102.23828125 C-11.14274694 108.52550034 -16.46527103 112.29219404 -23.875 115.625 C-25.16470703 116.20894531 -25.16470703 116.20894531 -26.48046875 116.8046875 C-31.85849776 119.08930757 -37.14295874 120.51557266 -42.875 121.625 C-42.875 121.955 -42.875 122.285 -42.875 122.625 C-26.34790138 121.91599725 -11.26215324 118.91838022 1.125 107.1875 C2.15964283 106.03005865 3.16024983 104.84131137 4.125 103.625 C4.66640625 102.94824219 5.2078125 102.27148438 5.765625 101.57421875 C13.68925625 90.74653818 14.71623007 77.59387929 12.83203125 64.60546875 C11.040849 54.99471667 7.10150128 46.91450915 2.125 38.625 C1.465 38.625 0.805 38.625 0.125 38.625 C-0.24625 37.7896875 -0.24625 37.7896875 -0.625 36.9375 C-2.10424818 34.20089087 -3.80967439 31.94849131 -5.875 29.625 C-6.535 29.625 -7.195 29.625 -7.875 29.625 C-7.875 28.965 -7.875 28.305 -7.875 27.625 C-20.93686451 15.94757274 -36.47375822 12.81898215 -53.3828125 13.43261719 C-60.87802717 14.01120547 -67.55106729 16.63540487 -73.875 20.625 Z M-45.875 54.625 C-45.875 54.955 -45.875 55.285 -45.875 55.625 C-44.225 55.625 -42.575 55.625 -40.875 55.625 C-40.875 55.295 -40.875 54.965 -40.875 54.625 C-42.525 54.625 -44.175 54.625 -45.875 54.625 Z " fill="#801D2E" transform="translate(132.875,23.375)"/>
  <path d="M0 0 C1.43692567 1.20542098 2.85310835 2.43590547 4.25 3.6875 C5.05953125 4.39261719 5.8690625 5.09773438 6.703125 5.82421875 C20.57270714 18.69399973 29.50985029 37.90895436 30.5234375 56.8828125 C31.19996623 79.9602211 24.53678659 99.96492001 8.97265625 117.2109375 C-4.81620434 131.71864864 -24.10752891 140.34573845 -44.15625 140.890625 C-72.19620945 141.25114204 -95.52518047 134.39422265 -116.0859375 114.41796875 C-122.00526359 108.15594483 -126.64842196 101.13213665 -131.30322266 93.92285156 C-142.30621093 76.92262196 -153.32998612 60.00568285 -167.3125 45.28125 C-169.32565666 43.13904483 -171.20079243 40.95878323 -173.0625 38.6875 C-181.06901598 29.49056678 -191.16614129 21.65434208 -201.75 15.6875 C-202.68070313 15.15511719 -203.61140625 14.62273438 -204.5703125 14.07421875 C-222.3882755 4.5000333 -242.29374835 2.21680793 -261.75 7.6875 C-280.26724186 13.78295119 -293.64284717 25.62398926 -302.75 42.6875 C-309.49247812 57.07591486 -311.61130081 73.34983456 -306.84765625 88.859375 C-301.34951632 103.02540102 -293.99926968 114.10506033 -279.75 120.6875 C-264.62498331 126.82885215 -250.12073697 127.71409059 -234.6640625 121.43359375 C-225.12142562 116.6361311 -219.13632515 109.82826939 -215.75 99.6875 C-213.10627285 88.95290318 -214.22252969 77.7266733 -218.75 67.6875 C-220.85056556 64.44542442 -223.20472604 61.58384623 -225.75 58.6875 C-226.41 57.6975 -227.07 56.7075 -227.75 55.6875 C-218.60648035 58.03199222 -211.04307608 63.97854745 -205.75 71.6875 C-199.41861897 82.8687189 -195.76204512 92.76038772 -198.36328125 105.75 C-201.98262701 117.99518743 -209.96077929 128.37014903 -221.1328125 134.5625 C-241.20367254 144.74108692 -262.76320562 145.27398672 -284.0703125 138.65625 C-300.51142859 132.90380276 -315.00917353 121.33577988 -323.2890625 105.88671875 C-332.47316673 85.77500386 -334.80322177 64.58411036 -327 43.5625 C-316.57843006 19.53389911 -296.96779933 0.16489171 -272.68261719 -9.58105469 C-250.64959435 -17.91998046 -227.12731606 -15.5084897 -205.74072266 -6.23974609 C-195.36622609 -1.40747507 -186.342644 5.17412529 -177.75 12.6875 C-177.02167969 13.29464844 -176.29335938 13.90179688 -175.54296875 14.52734375 C-162.77736611 25.29145611 -153.05623197 39.63032482 -144.41674805 53.79321289 C-141.51967066 58.52274012 -138.46558206 63.1058983 -135.25 67.625 C-134.61747314 68.5214624 -134.61747314 68.5214624 -133.97216797 69.43603516 C-131.80731977 72.55258032 -131.80731977 72.55258032 -128.75 74.6875 C-128.79640625 73.80191406 -128.8428125 72.91632813 -128.890625 72.00390625 C-129.63829367 46.34284941 -118.91320892 22.53164176 -101.75 3.6875 C-74.56096289 -24.34192553 -30.263747 -22.63109123 0 0 Z M-83.75 22.6875 C-84.87535156 23.45707031 -84.87535156 23.45707031 -86.0234375 24.2421875 C-86.59320312 24.71914063 -87.16296875 25.19609375 -87.75 25.6875 C-87.75 26.3475 -87.75 27.0075 -87.75 27.6875 C-88.41 27.6875 -89.07 27.6875 -89.75 27.6875 C-91.33191818 29.17176233 -91.33191818 29.17176233 -92.875 31.0625 C-93.41382813 31.68898438 -93.95265625 32.31546875 -94.5078125 32.9609375 C-95.94467147 34.60358428 -95.94467147 34.60358428 -95.75 36.6875 C-96.41 36.6875 -97.07 36.6875 -97.75 36.6875 C-107.06609436 52.68639839 -111.83056087 69.01449606 -107.75 87.5625 C-103.80794801 99.74029441 -94.17189837 108.49360973 -83.25 114.4375 C-73.7173612 119.19275461 -63.3725616 120.92051103 -52.75 120.6875 C-52.75 120.3575 -52.75 120.0275 -52.75 119.6875 C-53.51183594 119.51734375 -54.27367187 119.3471875 -55.05859375 119.171875 C-61.67441084 117.61909895 -67.70997224 115.80907187 -73.75 112.6875 C-74.55050781 112.29046875 -75.35101562 111.8934375 -76.17578125 111.484375 C-83.49704584 107.52201096 -88.53282866 102.10220711 -93.75 95.6875 C-94.28882813 95.07519531 -94.82765625 94.46289062 -95.3828125 93.83203125 C-100.64279989 86.94995195 -102.28786516 75.92837818 -101.55810547 67.4609375 C-99.16805674 52.50188432 -92.20684342 40.00935956 -80 30.9375 C-68.57163925 23.43491203 -56.52076027 20.19006248 -42.86328125 22.1875 C-32.10746601 24.73231396 -23.12790454 31.82272022 -16.75 40.6875 C-11.5093108 49.51796533 -11.98390441 61.63661709 -14.0703125 71.33984375 C-14.93775056 74.33599474 -16.22040558 76.97594625 -17.75 79.6875 C-17.75 80.3475 -17.75 81.0075 -17.75 81.6875 C-18.41 81.6875 -19.07 81.6875 -19.75 81.6875 C-20.41 82.38875 -21.07 83.09 -21.75 83.8125 C-30.14559147 92.32871778 -40.44595989 94.45816494 -51.75 96.6875 C-46.28345771 101.34418418 -40.74640793 100.83173044 -33.9375 100.5 C-32.78411133 100.47196289 -32.78411133 100.47196289 -31.60742188 100.44335938 C-26.10279726 100.17857996 -21.24166142 99.04419877 -16.75 95.6875 C-16.255 94.2025 -16.255 94.2025 -15.75 92.6875 C-14.41961551 92.3425855 -13.08542939 92.01233418 -11.75 91.6875 C-6.92028482 89.02622837 -4.66861892 86.86777108 -2.75 81.6875 C-2.18174937 79.2492615 -1.69867829 76.81547284 -1.27734375 74.34765625 C-0.75 71.6875 -0.75 71.6875 0.3203125 68.328125 C3.18159745 57.12342931 0.1277721 44.56352467 -5.375 34.625 C-10.51189451 26.55092075 -16.8068743 20.22507652 -25.75 16.6875 C-26.60207031 16.32914063 -27.45414063 15.97078125 -28.33203125 15.6015625 C-47.59984082 7.64618578 -66.6978966 11.00010329 -83.75 22.6875 Z M-54.75 52.6875 C-54.75 53.0175 -54.75 53.3475 -54.75 53.6875 C-53.1 53.6875 -51.45 53.6875 -49.75 53.6875 C-49.75 53.3575 -49.75 53.0275 -49.75 52.6875 C-51.4 52.6875 -53.05 52.6875 -54.75 52.6875 Z " fill="#801D2E" transform="translate(714.75,25.3125)"/>
  <path d="M0 0 C21.58081127 16.62882153 36.65507677 37.8712527 40.25 65.3125 C40.51130724 67.54036951 40.76549845 69.7691497 41 72 C41.49628906 71.31035156 41.99257812 70.62070313 42.50390625 69.91015625 C46.29767286 64.66223243 50.13949058 59.47296295 54.15234375 54.390625 C55.52795006 52.61077075 56.86902488 50.80412262 58.19140625 48.984375 C62.37706518 43.23352043 66.2938179 38.27963657 72 34 C72.33 34 72.66 34 73 34 C73.40589707 39.40685529 73.40589707 39.40685529 71.63671875 41.9921875 C70.67185547 42.92417969 70.67185547 42.92417969 69.6875 43.875 C66.03980393 47.72640684 62.97007235 51.68741015 60 56.0625 C59.55350098 56.71798828 59.10700195 57.37347656 58.64697266 58.04882812 C55.68081019 62.43789908 52.77625771 66.86605962 49.87890625 71.30078125 C49.16541016 72.38673584 48.45191406 73.47269043 47.71679688 74.59155273 C46.29669228 76.75598912 44.88501264 78.92598011 43.48242188 81.10180664 C42.82951172 82.09688232 42.17660156 83.09195801 41.50390625 84.1171875 C40.63487671 85.45692627 40.63487671 85.45692627 39.74829102 86.82373047 C37.95410684 89.05712772 36.6403979 89.96990097 34 91 C33.96132813 89.67162109 33.96132813 89.67162109 33.921875 88.31640625 C32.70114265 61.65450201 22.94930068 36.37207991 3.4765625 17.5625 C-10.48096307 5.44687663 -28.05048697 -0.9549318 -46.5390625 -0.3203125 C-65.89126021 1.47074869 -84.24395259 8.2272923 -99 21 C-99.73992187 21.63292969 -100.47984375 22.26585938 -101.2421875 22.91796875 C-114.76963677 35.39224291 -123.29325155 54.84670962 -124.2734375 73.1953125 C-124.89632272 94.44286062 -119.45769911 114.8787581 -105 131 C-104.32195312 131.75925781 -103.64390625 132.51851562 -102.9453125 133.30078125 C-90.65096881 146.3170348 -72.56047062 155.20542278 -54.53295898 156.12597656 C-26.74239031 156.88994522 -3.98812935 151.68249371 17.5625 133.5625 C27.61404758 124.02831149 34.95506949 111.87353826 42.12353516 100.11743164 C50.49747954 86.55123963 60.42226027 73.90941512 71 62 C71.47115234 61.46181641 71.94230469 60.92363281 72.42773438 60.36914062 C91.21613294 38.97193905 113.89314279 21.98815947 143.18359375 19.83984375 C161.81392328 19.13623525 179.65406344 26.38312489 193.69140625 38.28125 C203.82668203 47.81305135 214.10572801 62.83790097 215.16113281 77.19140625 C215.49328869 95.94662648 213.8216627 113.22271642 200.1875 127.5 C188.23673086 138.47886924 173.46178892 143.45775229 157.28515625 143.27734375 C145.96618846 142.32175907 134.92906469 137.50411979 127.125 129.1875 C119.34658998 119.61124992 118.1287082 109.01137981 119 97 C120.52033392 88.82133622 123.16508239 80.21877946 130 75 C137.8913045 71.65351879 145.50518877 70.21161869 154 72 C154 72.33 154 72.66 154 73 C153.24976563 73.01417969 152.49953125 73.02835937 151.7265625 73.04296875 C144.40272146 73.38425605 137.84919095 74.26546619 132 79 C130.14200462 81.87363534 128.95692414 84.72217778 128 88 C127.34 88 126.68 88 126 88 C123.5161725 102.65434682 123.5161725 102.65434682 127.375 116.75 C127.91125 117.4925 128.4475 118.235 129 119 C129.680625 120.0725 130.36125 121.145 131.0625 122.25 C132.71317169 125.05392095 132.71317169 125.05392095 135 126 C135 126.66 135 127.32 135 128 C136.99468882 128.68239354 138.99657266 129.34370484 141 130 C141.680625 130.26425781 142.36125 130.52851563 143.0625 130.80078125 C154.94446648 135.0357389 166.36460921 133.92858268 177.9140625 129.484375 C181.16513875 127.92056617 184.00808706 126.00603905 187 124 C187.66 124 188.32 124 189 124 C189.66 122.68 190.32 121.36 191 120 C191.66 120 192.32 120 193 120 C193.27972656 119.43410156 193.55945313 118.86820312 193.84765625 118.28515625 C194.60550663 116.78230041 195.38373567 115.28951911 196.18359375 113.80859375 C202.93462902 101.04261739 205.43392464 87.79442184 201.45825195 73.70019531 C199.42729236 67.17348205 197.10188152 60.54113819 193 55 C192.34 54.67 191.68 54.34 191 54 C191 53.34 191 52.68 191 52 C190.34 52 189.68 52 189 52 C188.505 51.154375 188.01 50.30875 187.5 49.4375 C182.14112746 41.02208535 169.92381502 34.9988864 160.4375 32.6875 C142.65471038 29.77962245 126.46500014 32.92017037 111 42 C109.30460739 43.29661075 107.62716252 44.61873331 106 46 C107.05058594 45.51789062 108.10117188 45.03578125 109.18359375 44.5390625 C124.03126909 37.81378272 124.03126909 37.81378272 131 37 C132.093125 36.85691406 133.18625 36.71382812 134.3125 36.56640625 C143.91466229 35.59618777 152.70981676 36.39966511 162 39 C162.66 39.66 163.32 40.32 164 41 C163.35417969 40.855625 162.70835937 40.71125 162.04296875 40.5625 C139.63313102 36.14797656 119.21694098 39.81007343 100.0625 52.4375 C89.19605169 61.5298343 81.90912445 72.89927381 80 87 C79.15127631 99.03207775 80.173161 109.51948301 84 121 C84.30808594 121.96550781 84.61617187 122.93101562 84.93359375 123.92578125 C85.59470629 125.95973034 86.29190418 127.98192691 87 130 C79.51234912 123.49084895 77.56758202 108.96986875 76.67578125 99.58984375 C76.25854238 86.8280893 79.6674041 75.0301363 86 64 C84.58913785 65.65174105 83.1786039 67.30376334 81.76953125 68.95703125 C80.6392138 70.26201144 79.4921714 71.55281109 78.32421875 72.82421875 C74.03348962 77.52922517 70.56148061 82.54002983 67.09375 87.875 C65.04499156 90.93284842 62.87330831 93.83669909 60.625 96.75 C54.81223217 104.3967963 49.90918577 112.59279193 44.91113281 120.78466797 C43.94685929 122.3601975 42.9737379 123.93030219 42 125.5 C41.46375 126.3765625 40.9275 127.253125 40.375 128.15625 C39.92125 128.7646875 39.4675 129.373125 39 130 C38.34 130 37.68 130 37 130 C36.6596875 130.81210937 36.6596875 130.81210937 36.3125 131.640625 C34.60250202 134.71454995 32.37295298 137.18239551 30 139.75 C29.51668213 140.2749707 29.03336426 140.79994141 28.53540039 141.34082031 C24.11524273 146.04510527 19.3883267 150.41481198 14 154 C13.34 154 12.68 154 12 154 C12 154.66 12 155.32 12 156 C-12.70131716 167.06255308 -12.70131716 167.06255308 -21.33105469 167.17700195 C-22.18004333 167.18983719 -23.02903198 167.20267242 -23.90374756 167.21589661 C-25.27397064 167.22697701 -25.27397064 167.22697701 -26.671875 167.23828125 C-27.62709045 167.246353 -28.58230591 167.25442474 -29.56646729 167.26274109 C-31.5939351 167.27657008 -33.62142608 167.28729753 -35.64892578 167.29516602 C-37.69489504 167.30660231 -39.74083648 167.32691883 -41.78662109 167.35668945 C-57.57704335 167.58622377 -72.28272581 166.90578822 -86.4375 159.0625 C-87.10378418 158.70752441 -87.77006836 158.35254883 -88.45654297 157.98681641 C-89.74877798 157.29638379 -91.03778264 156.599855 -92.32275391 155.89599609 C-93.69170114 155.16469532 -95.09774431 154.50319814 -96.51171875 153.86328125 C-112.15651834 146.54695168 -123.92528648 128.74951072 -129.99493408 113.17980957 C-133.32451446 103.45280681 -132.89257792 93.19006048 -132.78222656 83.02783203 C-132.75004806 79.50526081 -132.7820625 75.98727628 -132.8203125 72.46484375 C-132.86234983 49.80003057 -126.79108178 34.31646426 -111.37109375 17.3515625 C-105.43249811 11.46188445 -99.45146371 7.26679043 -92 3.4375 C-90.61494263 2.72025757 -90.61494263 2.72025757 -89.2019043 1.98852539 C-64.397445 -10.57611313 -24.42028238 -17.36822064 0 0 Z M101 48 C100.67 48.66 100.34 49.32 100 50 C100.99 49.67 101.98 49.34 103 49 C102.34 48.67 101.68 48.34 101 48 Z " fill="#CAA06A" transform="translate(132,9)"/>
  <path d="M0 0 C0.68513672 0.33660645 1.37027344 0.67321289 2.07617188 1.02001953 C14.8265932 7.38631797 24.11535802 15.43609214 32.3125 27.1875 C32.69712402 27.72584473 33.08174805 28.26418945 33.47802734 28.81884766 C34.79787596 30.82331452 35.90491563 32.86317714 37 35 C37.52948242 36.02722168 38.05896484 37.05444336 38.60449219 38.11279297 C44.02858287 49.77125957 43.85260356 61.53482735 43.67236328 74.19189453 C43.62489685 77.75774878 43.63131443 81.32062519 43.64453125 84.88671875 C43.63338194 87.19012171 43.61916484 89.49351231 43.6015625 91.796875 C43.60338531 92.84405701 43.60520813 93.89123901 43.60708618 94.97015381 C43.22879257 114.98314507 31.25536715 131.17092604 17.61010742 144.82885742 C13.93885825 148.351003 10.38306057 150.84886906 5.671875 152.859375 C2.45652317 154.23201058 -0.54710034 155.90516941 -3.625 157.5625 C-17.75550355 164.49128773 -31.24951911 165.6318696 -46.77392578 165.46655273 C-49.76000007 165.43740238 -52.74431044 165.44603083 -55.73046875 165.45898438 C-68.67304259 165.44633982 -79.96134596 164.57811991 -91.5625 158.375 C-96.16672734 155.917881 -96.16672734 155.917881 -101 154 C-101 153.34 -101 152.68 -101 152 C-101.6703125 151.80921875 -102.340625 151.6184375 -103.03125 151.421875 C-107.22292282 149.41428433 -110.16575731 146.44559102 -113.5 143.25 C-114.15097656 142.6415625 -114.80195312 142.033125 -115.47265625 141.40625 C-119.2774775 137.80896445 -122.82813427 134.17222339 -126 130 C-126 129.34 -126 128.68 -126 128 C-126.66 128 -127.32 128 -128 128 C-129.22247708 126.23828491 -130.34959691 124.41035203 -131.4375 122.5625 C-132.15451022 121.36614308 -132.87335711 120.17088558 -133.59375 118.9765625 C-134.17382812 118.01218262 -134.17382812 118.01218262 -134.765625 117.02832031 C-140.65105367 107.35740628 -146.84662092 97.9431428 -153.75 88.96875 C-155.82467251 86.23133488 -157.81082656 83.45234548 -159.78125 80.64013672 C-164.42191854 74.02046357 -169.26647574 67.73352426 -175 62 C-174.40251953 63.07314453 -174.40251953 63.07314453 -173.79296875 64.16796875 C-164.74910085 81.17748185 -164.05856913 97.81271431 -169.37060547 116.08349609 C-170.75734241 120.30610469 -172.71985675 124.19664631 -175 128 C-175.33 127.34 -175.66 126.68 -176 126 C-175.30371768 123.95228363 -174.51687917 121.93501885 -173.6875 119.9375 C-170.20003675 111.53361292 -168.62220108 103.76218421 -168.6875 94.6875 C-168.69595947 93.44419922 -168.69595947 93.44419922 -168.70458984 92.17578125 C-168.98003462 78.16900546 -173.55699493 65.44300507 -183.6015625 55.3984375 C-196.50981683 43.34010938 -213.49578992 36.79863109 -231.0625 36.8125 C-232.32090698 36.8115332 -232.32090698 36.8115332 -233.60473633 36.81054688 C-240.21343048 36.86636462 -246.53990104 37.55582618 -253 39 C-248.26376787 34.26376787 -237.9514684 34.0528804 -231.48242188 33.96630859 C-219.61240948 34.32607538 -209.71882556 36.9978814 -199 42 C-197.515 42.495 -197.515 42.495 -196 43 C-211.58849837 31.96079809 -228.53478378 27.89758581 -247.390625 30.4609375 C-258.02922719 32.82816573 -268.13577981 38.42960781 -276 46 C-277.24070762 48.1030303 -277.24070762 48.1030303 -278 50 C-278.66 50 -279.32 50 -280 50 C-280 50.66 -280 51.32 -280 52 C-280.6496875 52.63421875 -280.6496875 52.63421875 -281.3125 53.28125 C-289.17674721 61.29113142 -292.09106215 74.49469889 -292.4375 85.3125 C-292.1854759 96.08379068 -289.73646943 105.68365906 -283.171875 114.328125 C-282 116 -282 116 -282 118 C-280.68 118.66 -279.36 119.32 -278 120 C-278 120.66 -278 121.32 -278 122 C-274.40798602 123.85886723 -270.71366252 125.46593588 -267 127.0625 C-266.07574219 127.4656543 -266.07574219 127.4656543 -265.1328125 127.87695312 C-253.89515454 132.71203987 -241.36549699 132.41274031 -230 128 C-228.80375 127.608125 -227.6075 127.21625 -226.375 126.8125 C-225.199375 126.4103125 -225.199375 126.4103125 -224 126 C-224 125.34 -224 124.68 -224 124 C-223.236875 123.2575 -222.47375 122.515 -221.6875 121.75 C-218.92949226 118.92785255 -217.57078236 116.59035968 -216 113 C-215.62875 112.2575 -215.2575 111.515 -214.875 110.75 C-212.19125627 102.31537685 -213.2261069 94.5322792 -215 86 C-215.66 86 -216.32 86 -217 86 C-218.65 82.37 -220.3 78.74 -222 75 C-217.54218913 76.48593696 -216.67575488 79.76111605 -214.5 83.75 C-213.13521311 86.29600708 -213.13521311 86.29600708 -210 87 C-206.27700635 96.99329874 -206.62324184 109.27569899 -211 119 C-216.54760144 129.33871177 -224.01898842 135.06228949 -235 139 C-249.76097904 143.07563513 -263.58906606 141.20546697 -277.1484375 134.42578125 C-290.58334559 126.35354656 -298.38246667 115.26784106 -302.9375 100.4375 C-307.00059836 81.51869827 -303.44498521 64.74302888 -293.11621094 48.62792969 C-290.17974535 44.34526291 -286.68884581 40.63479679 -283 37 C-282.46117187 36.45085938 -281.92234375 35.90171875 -281.3671875 35.3359375 C-268.53967642 23.28194468 -250.75477876 17.57303892 -233.4296875 17.7890625 C-211.21881527 19.15510703 -193.69098057 28.64138353 -177 43 C-175.74896484 44.06541016 -175.74896484 44.06541016 -174.47265625 45.15234375 C-155.0375585 62.13118902 -140.23065521 83.67212087 -126.375 105.25 C-111.19940696 128.78998726 -93.92792857 145.75536678 -65.7890625 152.421875 C-64.86867188 152.61265625 -63.94828125 152.8034375 -63 153 C-62.13375 153.18691406 -61.2675 153.37382812 -60.375 153.56640625 C-37.90902979 156.45265937 -14.68709535 153.530957 4 140 C21.24698419 126.00962159 31.24286962 108.91084905 35 87 C37.13276823 66.4608489 32.00067036 45.83163074 19.625 29.1875 C18.43821924 27.77329649 17.22943749 26.37728124 16 25 C15.05253906 23.89591797 15.05253906 23.89591797 14.0859375 22.76953125 C-0.09189916 7.34383256 -22.42773481 -0.84544907 -42.97265625 -2.1953125 C-61.36124443 -2.81724897 -78.47792413 3.38857354 -92.41015625 15.5 C-112.94122348 35.3188281 -121.86061806 60.94763082 -123 89 C-127.55680238 87.48811429 -129.54872789 83.75082952 -132.0625 79.9375 C-132.54001709 79.22940186 -133.01753418 78.52130371 -133.50952148 77.79174805 C-136.46579537 73.38566516 -139.33695789 68.92717411 -142.19311523 64.45581055 C-150.47710581 51.10576309 -150.47710581 51.10576309 -160.76953125 39.34765625 C-162 38 -162 38 -162.1875 34.8125 C-162.125625 33.884375 -162.06375 32.95625 -162 32 C-156.19758244 33.93413919 -152.83896679 39.32998986 -149.25 44.0625 C-148.82243408 44.62469238 -148.39486816 45.18688477 -147.9543457 45.76611328 C-146.63202789 47.50760754 -145.31551452 49.25336288 -144 51 C-143.17579295 52.0898526 -142.35157455 53.17969661 -141.52734375 54.26953125 C-137.61340877 59.46415281 -133.7460771 64.68298734 -130 70 C-129.87044922 68.65421875 -129.87044922 68.65421875 -129.73828125 67.28125 C-127.15004005 44.29576852 -117.64264623 21.21643846 -99.4375 6.125 C-97.63481414 4.73715817 -95.82294002 3.36112855 -94 2 C-92.89591797 1.11828125 -92.89591797 1.11828125 -91.76953125 0.21875 C-66.74139968 -19.53265751 -26.48203453 -13.20878499 0 0 Z M-192 46 C-191.67 46.66 -191.34 47.32 -191 48 C-190.34 47.67 -189.68 47.34 -189 47 C-189.99 46.67 -190.98 46.34 -192 46 Z " fill="#CA9F6A" transform="translate(709,11)"/>
  <path d="M0 0 C0.8765625 0.350625 1.753125 0.70125 2.65625 1.0625 C15.63139863 6.82923272 25.50495226 18.25973772 30.93359375 31.1953125 C37.16072168 47.57288706 36.1723785 63.72446872 29.4921875 79.76953125 C21.20334848 97.56162058 7.31427195 108.25172512 -10.7578125 115.03515625 C-27.55364034 120.1791776 -46.47437465 117.8194021 -61.91601562 109.96386719 C-74.65867263 103.03851012 -83.68636394 91.79899707 -88 78 C-92.46524445 60.76415642 -87.6810253 42.87757564 -79.12353516 27.84667969 C-70.26384027 13.28459101 -56.26282438 2.11492057 -40 -3 C-27.01894544 -5.85089046 -12.20113553 -5.2094736 0 0 Z M-59 15 C-60.12535156 15.76957031 -60.12535156 15.76957031 -61.2734375 16.5546875 C-61.84320312 17.03164063 -62.41296875 17.50859375 -63 18 C-63 18.66 -63 19.32 -63 20 C-63.66 20 -64.32 20 -65 20 C-66.58191818 21.48426233 -66.58191818 21.48426233 -68.125 23.375 C-68.66382813 24.00148438 -69.20265625 24.62796875 -69.7578125 25.2734375 C-71.19467147 26.91608428 -71.19467147 26.91608428 -71 29 C-71.66 29 -72.32 29 -73 29 C-82.31609436 44.99889839 -87.08056087 61.32699606 -83 79.875 C-79.05794801 92.05279441 -69.42189837 100.80610973 -58.5 106.75 C-48.9673612 111.50525461 -38.6225616 113.23301103 -28 113 C-28 112.67 -28 112.34 -28 112 C-28.76183594 111.82984375 -29.52367187 111.6596875 -30.30859375 111.484375 C-36.92441084 109.93159895 -42.95997224 108.12157187 -49 105 C-49.80050781 104.60296875 -50.60101562 104.2059375 -51.42578125 103.796875 C-58.74704584 99.83451096 -63.78282866 94.41470711 -69 88 C-69.53882813 87.38769531 -70.07765625 86.77539062 -70.6328125 86.14453125 C-75.89279989 79.26245195 -77.53786516 68.24087818 -76.80810547 59.7734375 C-74.41805674 44.81438432 -67.45684342 32.32185956 -55.25 23.25 C-43.82163925 15.74741203 -31.77076027 12.50256248 -18.11328125 14.5 C-7.35746601 17.04481396 1.62209546 24.13522022 8 33 C13.2406892 41.83046533 12.76609559 53.94911709 10.6796875 63.65234375 C9.81224944 66.64849474 8.52959442 69.28844625 7 72 C7 72.66 7 73.32 7 74 C6.34 74 5.68 74 5 74 C4.34 74.70125 3.68 75.4025 3 76.125 C-5.39559147 84.64121778 -15.69595989 86.77066494 -27 89 C-21.53345771 93.65668418 -15.99640793 93.14423044 -9.1875 92.8125 C-8.03411133 92.78446289 -8.03411133 92.78446289 -6.85742188 92.75585938 C-1.35279726 92.49107996 3.50833858 91.35669877 8 88 C8.495 86.515 8.495 86.515 9 85 C10.33038449 84.6550855 11.66457061 84.32483418 13 84 C17.82971518 81.33872837 20.08138108 79.18027108 22 74 C22.56825063 71.5617615 23.05132171 69.12797284 23.47265625 66.66015625 C24 64 24 64 25.0703125 60.640625 C27.93159745 49.43592931 24.8777721 36.87602467 19.375 26.9375 C14.23810549 18.86342075 7.9431257 12.53757652 -1 9 C-1.85207031 8.64164063 -2.70414063 8.28328125 -3.58203125 7.9140625 C-22.84984082 -0.04131422 -41.9478966 3.31260329 -59 15 Z M-30 45 C-30 45.33 -30 45.66 -30 46 C-28.35 46 -26.7 46 -25 46 C-25 45.67 -25 45.34 -25 45 C-26.65 45 -28.3 45 -30 45 Z " fill="#C99E69" transform="translate(690,33)"/>
  <path d="M0 0 C15.6223763 11.17362013 27.78023232 27.43863203 31.51171875 46.5625 C33.60539343 63.53621976 31.56233192 78.14820757 20.94921875 92.109375 C11.65294665 103.7662735 -2.48481918 110.22525325 -17.05078125 112.109375 C-35.48683928 113.86035104 -53.59219876 110.50582638 -68.27734375 98.5625 C-78.30350641 89.97216386 -84.53405931 80.49229806 -89.05078125 68.109375 C-89.40527344 67.14515625 -89.75976562 66.1809375 -90.125 65.1875 C-94.66987539 50.07626875 -92.37758785 34.27075744 -85.36328125 20.359375 C-76.52300988 5.25539377 -63.64262656 -3.64048268 -47.13549805 -8.44848633 C-31.10141955 -11.84908548 -13.7455294 -8.58866189 0 0 Z M-60.05078125 6.109375 C-60.97890625 6.66625 -61.90703125 7.223125 -62.86328125 7.796875 C-71.97477681 14.4071757 -79.54411263 23.41884732 -81.734375 34.78515625 C-81.83878906 35.55214844 -81.94320312 36.31914063 -82.05078125 37.109375 C-82.20675781 38.17542969 -82.36273438 39.24148437 -82.5234375 40.33984375 C-83.80400724 52.13849117 -82.56059163 65.82283522 -75.34375 75.7265625 C-73.44715466 77.75494544 -71.60496222 79.03393038 -69.05078125 80.109375 C-68.06078125 80.109375 -67.07078125 80.109375 -66.05078125 80.109375 C-65.86515625 80.7075 -65.67953125 81.305625 -65.48828125 81.921875 C-63.41001646 85.08445185 -60.54182347 86.0110092 -57.05078125 87.109375 C-54.09554908 87.64200604 -51.17335311 87.85059436 -48.17578125 87.984375 C-46.98976318 88.04612915 -46.98976318 88.04612915 -45.77978516 88.10913086 C-39.9224051 88.31250373 -35.42352821 87.59675785 -30.05078125 85.109375 C-30.05078125 84.779375 -30.05078125 84.449375 -30.05078125 84.109375 C-31.15035156 83.90183594 -32.24992187 83.69429688 -33.3828125 83.48046875 C-43.74074468 81.37814522 -52.59569757 78.69223541 -60.21875 70.890625 C-61.86390115 68.87700826 -61.86390115 68.87700826 -64.05078125 69.109375 C-64.33953125 68.036875 -64.62828125 66.964375 -64.92578125 65.859375 C-65.82617868 62.34650008 -65.82617868 62.34650008 -67.07421875 60.31640625 C-70.58610049 52.37955352 -69.78411706 40.17018479 -67.05078125 32.109375 C-62.81311296 23.33339303 -55.08577993 15.80551082 -46.05078125 12.109375 C-45.29410156 11.77164063 -44.53742188 11.43390625 -43.7578125 11.0859375 C-32.29132201 6.94939692 -19.659713 9.17044302 -8.92578125 14.171875 C2.7708642 20.21812131 11.77361649 29.1828345 16.23046875 41.7109375 C17.24832401 45.164375 18.1664929 48.5955251 18.94921875 52.109375 C19.16835937 53.06714844 19.3875 54.02492187 19.61328125 55.01171875 C20.52247055 63.39528983 18.61011254 73.54611409 13.82421875 80.546875 C12.56429297 82.09410603 11.27132696 83.61492972 9.94921875 85.109375 C9.26601562 85.97175781 8.5828125 86.83414063 7.87890625 87.72265625 C2.68147181 94.00987534 -2.64105228 97.77656904 -10.05078125 101.109375 C-11.34048828 101.69332031 -11.34048828 101.69332031 -12.65625 102.2890625 C-18.03427901 104.57368257 -23.31873999 105.99994766 -29.05078125 107.109375 C-29.05078125 107.439375 -29.05078125 107.769375 -29.05078125 108.109375 C-12.52368263 107.40037225 2.56206551 104.40275522 14.94921875 92.671875 C15.98386158 91.51443365 16.98446858 90.32568637 17.94921875 89.109375 C18.490625 88.43261719 19.03203125 87.75585938 19.58984375 87.05859375 C27.513475 76.23091318 28.54044882 63.07825429 26.65625 50.08984375 C24.86506775 40.47909167 20.92572003 32.39888415 15.94921875 24.109375 C15.28921875 24.109375 14.62921875 24.109375 13.94921875 24.109375 C13.57796875 23.2740625 13.57796875 23.2740625 13.19921875 22.421875 C11.71997057 19.68526587 10.01454436 17.43286631 7.94921875 15.109375 C7.28921875 15.109375 6.62921875 15.109375 5.94921875 15.109375 C5.94921875 14.449375 5.94921875 13.789375 5.94921875 13.109375 C-7.11264576 1.43194774 -22.64953947 -1.69664285 -39.55859375 -1.08300781 C-47.05380842 -0.50441953 -53.72684854 2.11977987 -60.05078125 6.109375 Z M-32.05078125 40.109375 C-32.05078125 40.439375 -32.05078125 40.769375 -32.05078125 41.109375 C-30.40078125 41.109375 -28.75078125 41.109375 -27.05078125 41.109375 C-27.05078125 40.779375 -27.05078125 40.449375 -27.05078125 40.109375 C-28.70078125 40.109375 -30.35078125 40.109375 -32.05078125 40.109375 Z " fill="#C99F6A" transform="translate(119.05078125,37.890625)"/>
  <path d="M0 0 C0.97018066 0.00684814 1.94036133 0.01369629 2.93994141 0.02075195 C9.96266891 0.1784002 15.88984194 1.01208103 22.125 4.4375 C22.83269531 4.81132813 23.54039062 5.18515625 24.26953125 5.5703125 C26.32185533 6.75540212 28.21408719 8.03668712 30.125 9.4375 C31.14400391 10.17419922 31.14400391 10.17419922 32.18359375 10.92578125 C39.47873722 16.70397618 44.56433652 25.22958544 46.125 34.4375 C46.93783821 44.68688175 46.22432788 54.33238072 39.875 62.8125 C33.17817618 69.20492274 24.99383999 73.4377464 15.625 73.8125 C8.32321893 73.50719905 1.98522399 71.28023474 -3.3671875 66.2265625 C-7.88256552 60.8689378 -9.63133903 54.81945204 -9.328125 47.8671875 C-8.35031929 42.62412584 -5.54502669 38.92196817 -1.625 35.4375 C2.34493464 33.9938874 5.95468 33.73489174 10.125 34.4375 C12.99529869 36.23143668 14.61631638 37.42013276 16.125 40.4375 C16.50495866 43.93311971 16.59637184 45.75872455 14.5625 48.6875 C11.55154932 50.84920818 8.71425469 51.60921046 5.125 52.4375 C5.40672193 55.60687172 5.60834385 57.79167981 7.625 60.3125 C12.56626988 62.53607145 17.42366549 62.04741237 22.4375 60.25 C27.36609046 56.9260669 29.76912454 53.19997072 31.125 47.4375 C31.91670073 39.52049271 29.43418234 33.43416175 25.5 26.625 C17.22179208 19.00033481 7.45000957 17.97976383 -3.28515625 18.16796875 C-15.0874588 18.6556275 -24.9571444 25.09117437 -33.0625 33.4375 C-42.73812546 45.57446878 -46.00577056 59.24887818 -44.875 74.4375 C-44.16005811 78.22835469 -43.19016464 81.81296889 -41.875 85.4375 C-50.41562234 77.86278137 -53.35102486 64.52571926 -54.15625 53.6328125 C-54.48013246 40.21868073 -50.94870455 27.18609191 -41.66015625 17.08984375 C-30.15035702 6.43635343 -15.66875529 -0.16963402 0 0 Z " fill="#801D2E" transform="translate(273.875,55.5625)"/>
  <path d="M0 0 C9.67067732 6.5241518 15.80509596 17.17648577 18.5859375 28.35546875 C21.0970433 44.39338033 17.23983027 59.26033122 9 73 C8.01 73.495 8.01 73.495 7 74 C7.2165625 73.40316406 7.433125 72.80632812 7.65625 72.19140625 C11.59553598 59.91761243 11.87058019 46.65405978 6 35 C5.27103516 33.50533203 5.27103516 33.50533203 4.52734375 31.98046875 C-1.20628059 21.2045081 -9.46617728 13.28645053 -21 9 C-31.34105524 6.00429224 -42.64275857 4.91046922 -52.6875 9.4375 C-59.29701336 13.27264973 -62.31873687 18.25536848 -65.375 25.0625 C-66.99544193 32.67857707 -66.06136167 38.3660073 -62 45 C-57.24358484 49.5299192 -53.91459644 50.41281112 -47.4921875 50.34765625 C-44.70764949 50.14828717 -44.70764949 50.14828717 -41.8125 47.8125 C-39.70841909 45.1615292 -39.70841909 45.1615292 -40.1875 42.1875 C-40.455625 41.465625 -40.72375 40.74375 -41 40 C-42.27875 39.731875 -43.5575 39.46375 -44.875 39.1875 C-48.49675855 38.42809901 -48.80051868 38.29922197 -51 35 C-51.50835292 31.1026276 -51.32962183 29.49443274 -49.125 26.1875 C-46.2944516 23.27370018 -44.70176173 22.81519298 -40.75 22.6875 C-36.07189875 22.76258991 -33.53785788 23.79124518 -30 27 C-26.4101184 31.72352842 -25.29314661 35.43566179 -25.546875 41.37109375 C-26.55869521 47.2413955 -29.24032138 52.19401405 -33.375 56.4375 C-34.674375 57.2109375 -34.674375 57.2109375 -36 58 C-36.94875 58.5775 -37.8975 59.155 -38.875 59.75 C-46.3805738 62.72266708 -56.11236606 62.0893681 -63.5625 59.3125 C-71.98876941 55.30862695 -76.73339208 49.39668553 -80.3125 40.875 C-82.4308996 28.93492953 -81.53265873 18.01548072 -74.8125 7.8125 C-56.00737891 -17.28722229 -24.52956471 -15.16433688 0 0 Z " fill="#801D2E" transform="translate(513,67)"/>
  <path d="M0 0 C7.47089928 4.53877214 12.20071957 9.82948506 14.76171875 18.234375 C16.40037498 26.42765616 15.52569836 34.23744834 10.92578125 41.23046875 C6.94326107 46.35240206 2.34903105 49.56223527 -4.0859375 50.73828125 C-10.18368593 51.13235343 -13.28126945 49.29588142 -17.8203125 45.32421875 C-19.20156268 42.56171839 -19.01110556 40.37690776 -18.8203125 37.32421875 C-16.8203125 35.32421875 -16.8203125 35.32421875 -14.3828125 34.94921875 C-11.8203125 35.32421875 -11.8203125 35.32421875 -10.0078125 37.32421875 C-9.6159375 37.98421875 -9.2240625 38.64421875 -8.8203125 39.32421875 C-3.83420672 39.11909844 -3.83420672 39.11909844 0.1171875 36.38671875 C1.66671068 31.92044606 2.06027261 27.98913655 1.1796875 23.32421875 C-1.03698806 18.96394485 -4.2294729 16.29308506 -8.6953125 14.38671875 C-15.61001302 12.28737893 -21.2135323 12.78638404 -27.64453125 15.9296875 C-33.59877612 19.74596294 -37.87135142 25.56017734 -39.8203125 32.32421875 C-40.70619895 40.63408323 -39.73760388 47.49006436 -34.6328125 54.19921875 C-33.735625 55.25109375 -33.735625 55.25109375 -32.8203125 56.32421875 C-32.8203125 56.98421875 -32.8203125 57.64421875 -32.8203125 58.32421875 C-32.24925781 58.59363281 -31.67820312 58.86304688 -31.08984375 59.140625 C-28.75100198 60.3603652 -26.66977706 61.75256765 -24.5078125 63.26171875 C-12.96857737 70.9984653 -1.26007365 71.69757958 12.1796875 72.32421875 C7.06033498 77.44357127 -2.39449713 77.56948896 -9.2578125 77.76171875 C-20.8282606 77.4896121 -30.35541534 73.83578334 -39.8203125 67.32421875 C-40.7278125 66.70546875 -41.6353125 66.08671875 -42.5703125 65.44921875 C-49.67214855 58.74192915 -55.08436035 49.76819377 -56.05859375 39.9140625 C-56.41557977 27.1565093 -51.09510539 16.97663445 -42.6953125 7.63671875 C-31.83639529 -2.80829355 -13.78331831 -6.61320828 0 0 Z " fill="#811E2E" transform="translate(677.8203125,59.67578125)"/>
  <path d="M0 0 C10.71318098 6.81434217 17.87559831 15.83580717 21.6171875 28.0078125 C23.26413085 36.57864013 22.21706732 45.7306656 17.640625 53.2265625 C9.82934722 63.97713553 -1.94777553 73.1238355 -15.25390625 75.68359375 C-24.80078052 76.78358922 -35.114544 77.15671547 -44 73 C-44.66 72.34 -45.32 71.68 -46 71 C-45.43192627 70.96559814 -44.86385254 70.93119629 -44.27856445 70.89575195 C-29.95413276 69.96183318 -16.98776829 68.89356789 -5.5859375 59.234375 C-4 58 -4 58 -1 57 C0.02651373 55.28480253 0.02651373 55.28480253 1 53 C2.01700847 51.25074542 3.05373088 49.51456005 4.09765625 47.78125 C7.07008748 41.91359354 7.09680992 34.43798267 5.12890625 28.26953125 C1.80201426 21.05944729 -2.51125984 16.93818898 -9.375 13.125 C-15.35390976 11.26947628 -20.46245264 11.02005872 -26.25 13.625 C-30.13173283 15.86864158 -32.70743028 18.0596458 -35 22 C-35.98180533 27.4723576 -36.00118533 31.54112995 -32.8125 36.1875 C-30.16917968 38.12552918 -30.16917968 38.12552918 -27.375 38.5625 C-24.83862018 38.22939941 -24.83862018 38.22939941 -23.5 36 C-22 34 -22 34 -19.4375 33.625 C-17 34 -17 34 -15 36 C-14.5625 38.8125 -14.5625 38.8125 -15 42 C-17.55850705 45.12706417 -20.1030276 47.77523725 -24 49 C-31.29050322 49.58794381 -35.13962816 48.05946773 -41.125 43.75 C-45.91398049 39.16923606 -48.66500826 34.1487439 -49.203125 27.484375 C-49.35673508 18.5237871 -47.56289988 12.15229984 -42 5 C-30.66809448 -6.06837284 -13.91330452 -7.49858543 0 0 Z " fill="#811E2E" transform="translate(108,61)"/>
  <path d="M0 0 C6.13289157 9.19933736 5.22175127 24.13770842 3.34765625 34.6640625 C-0.94960724 50.11945651 -10.3964127 60.64287995 -23.98852539 68.4753418 C-29.74237841 71.64056578 -33.59611324 72.34034839 -40 71 C-36.84661713 69.35215147 -33.62334158 68.04836925 -30.3125 66.75 C-18.4829342 61.80544273 -7.04735715 53.28262448 -2 41 C-0.57707705 33.47883584 -0.92426396 25.8766188 -1 18.25 C-1.02550458 15.65108331 -1.04653894 13.05211782 -1.0625 10.453125 C-1.07410156 9.31004883 -1.08570313 8.16697266 -1.09765625 6.98925781 C-1.01481284 4.45342118 -0.74811586 2.40781383 0 0 Z " fill="#C39466" transform="translate(147,75)"/>
  <path d="M0 0 C2.61289776 3.00166801 3.36930244 4.79627311 3.29296875 8.765625 C3.28330078 9.65507813 3.27363281 10.54453125 3.26367188 11.4609375 C3.23853516 12.38132812 3.21339844 13.30171875 3.1875 14.25 C3.16719727 15.65378906 3.16719727 15.65378906 3.14648438 17.0859375 C3.11119954 19.39121327 3.06190281 21.6953106 3 24 C3.66 24 4.32 24 5 24 C5.26425781 24.71414062 5.52851562 25.42828125 5.80078125 26.1640625 C12.15056844 41.18017162 22.34503151 49.01637345 37 55 C39.32150919 55.75933614 41.63206088 56.39259895 44 57 C44 57.66 44 58.32 44 59 C45.98 59 47.96 59 50 59 C50 59.99 50 60.98 50 62 C34.44556619 59.9485294 20.12950941 53.26989714 10 41 C0.62450624 28.23577356 -0.61765327 15.2869184 0 0 Z " fill="#C39769" transform="translate(601,88)"/>
  <path d="M0 0 C0.495 0.99 0.495 0.99 1 2 C0.67 2.66 0.34 3.32 0 4 C-0.94875 3.835 -1.8975 3.67 -2.875 3.5 C-9.9536862 2.52362949 -16.92505157 1.68003667 -23 6 C-24.9191676 8.05712045 -26.72688624 10.1586078 -28.484375 12.35546875 C-29.23460937 13.16951172 -29.23460937 13.16951172 -30 14 C-30.66 14 -31.32 14 -32 14 C-32.12375 15.19625 -32.2475 16.3925 -32.375 17.625 C-32.82325054 21.27596813 -33.70446837 24.54524899 -35 28 C-35.33 28 -35.66 28 -36 28 C-36.69894012 19.83016658 -35.82861402 13.7622951 -31 7 C-21.88378592 -3.00437464 -12.38151927 -5.64771054 0 0 Z " fill="#C49461" transform="translate(673,75)"/>
  <path d="M0 0 C1.33804688 0.04060547 1.33804688 0.04060547 2.703125 0.08203125 C3.37859375 0.11683594 4.0540625 0.15164062 4.75 0.1875 C4.75 0.8475 4.75 1.5075 4.75 2.1875 C3.491875 2.414375 2.23375 2.64125 0.9375 2.875 C-2.11045362 3.65182358 -3.06491382 3.98506199 -5.25 6.375 C-6.96527906 11.19922235 -6.88555135 14.75060131 -4.8125 19.4375 C-4.296875 20.345 -3.78125 21.2525 -3.25 22.1875 C-2.92 23.1775 -2.59 24.1675 -2.25 25.1875 C-0.59561387 25.88408363 1.07254318 26.54846883 2.75 27.1875 C4.5625 28.8125 4.5625 28.8125 5.75 30.1875 C-1.17955309 29.94001596 -5.28129182 28.06482964 -10.25 23.1875 C-12.98113836 19.26148861 -13.79428247 15.84689195 -13.60546875 11.14453125 C-12.8608952 7.04528566 -10.43365421 4.26911505 -7.4375 1.53125 C-4.74714558 -0.12139629 -3.12810035 -0.12347765 0 0 Z " fill="#475C30" transform="translate(661.25,86.8125)"/>
  <path d="M0 0 C4.71190102 -0.37695208 8.07370593 -0.46314703 12.375 1.6875 C16.43556246 5.26466217 17.82399256 7.44107699 18.4375 12.875 C18.19927274 18.14577804 16.19591266 21.84856152 12.45703125 25.51171875 C8.11965569 28.975664 4.49071123 29.7110152 -1 30 C1.07110884 27.85922083 3.23730522 25.98314702 5.5625 24.125 C8.4704077 21.62812567 10.15511618 19.84891518 11 16 C11.29426149 11.80677376 11.47519565 8.51738329 9 5 C5.81237635 2.87491756 3.73487777 2.4979837 0 2 C0 1.34 0 0.68 0 0 Z " fill="#435B30" transform="translate(86,87)"/>
  <path d="M0 0 C4.66281183 3.21096432 8.5667782 7.21986585 10.37109375 12.6328125 C9.71109375 13.2928125 9.05109375 13.9528125 8.37109375 14.6328125 C7.69046875 13.9315625 7.00984375 13.2303125 6.30859375 12.5078125 C-1.25684884 4.78916576 -1.25684884 4.78916576 -11.44140625 2.3828125 C-15.93220891 2.41544915 -18.71137691 3.35517916 -22.62890625 5.6328125 C-24.2863134 6.00949594 -25.95235896 6.35338795 -27.62890625 6.6328125 C-28.61890625 7.1278125 -28.61890625 7.1278125 -29.62890625 7.6328125 C-27.79797761 2.68930518 -23.7820527 -0.14513141 -19.31640625 -2.6796875 C-12.08367014 -4.52992232 -6.54381995 -3.57306861 0 0 Z " fill="#C59663" transform="translate(102.62890625,75.3671875)"/>
  <path d="M0 0 C0.30512644 3.52929579 0.38759345 5.41860983 -1.609375 8.4140625 C-2.31578125 9.14367188 -3.0221875 9.87328125 -3.75 10.625 C-4.44609375 11.35976563 -5.1421875 12.09453125 -5.859375 12.8515625 C-6.91898438 13.91503906 -6.91898438 13.91503906 -8 15 C-8.69738281 15.71027344 -9.39476562 16.42054687 -10.11328125 17.15234375 C-12 19 -12 19 -14.4375 20.9375 C-17.16402518 23.13202027 -19.55667027 25.49558703 -22 28 C-23.66666667 29.66666667 -25.33333333 31.33333333 -27 33 C-25.66735698 29.20297191 -24.01543159 26.51539408 -21.4375 23.4375 C-18.29602845 19.63017307 -15.33599764 15.74536062 -12.4375 11.75 C-3.70070876 0 -3.70070876 0 0 0 Z " fill="#C39C6D" transform="translate(205,43)"/>
  <path d="M0 0 C-0.33 1.98 -0.66 3.96 -1 6 C-1.56976563 5.67773438 -2.13953125 5.35546875 -2.7265625 5.0234375 C-6.45242472 3.34615932 -9.99379157 3.44358216 -14 4 C-18.96475588 6.39043802 -20.9303826 8.94093524 -23 14 C-23.99 13.34 -24.98 12.68 -26 12 C-25.45276317 8.62537285 -24.9451 6.91765 -23 4 C-22.01 4 -21.02 4 -20 4 C-20 3.01 -20 2.02 -20 1 C-13.49522125 -2.01147164 -6.73357351 -3.36678676 0 0 Z " fill="#C29765" transform="translate(289,87)"/>
  <path d="M0 0 C-1.35382859 4.06148577 -4.09657028 5.39377918 -7.5 7.6875 C-14.5541401 12.5727955 -20.96391411 17.88916382 -27 24 C-27.31748167 20.91666106 -27.32599075 19.45402846 -25.48828125 16.89453125 C-20.91649864 12.51973748 -16.19726905 8.3799322 -11.25 4.4375 C-10.70770752 3.99575439 -10.16541504 3.55400879 -9.60668945 3.09887695 C-6.31488518 0.55867691 -4.17699562 -0.54919757 0 0 Z " fill="#C0986B" transform="translate(232,24)"/>
  <path d="M0 0 C5.45163864 2.89112707 9.94064737 6.23940367 14.5625 10.3125 C15.19607422 10.85583984 15.82964844 11.39917969 16.48242188 11.95898438 C25.49003273 19.81629271 25.49003273 19.81629271 28 24 C27.67 24.99 27.34 25.98 27 27 C22.05585589 22.80822564 17.22251091 18.51250993 12.4296875 14.1484375 C10.76575061 12.67711067 9.05213525 11.26063806 7.30078125 9.89453125 C4.79530342 7.83144679 3.58872128 5.79917559 2 3 C1.34 2.67 0.68 2.34 0 2 C0 1.34 0 0.68 0 0 Z " fill="#C29969" transform="translate(520,21)"/>
  <path d="M0 0 C4.42695694 6.64043542 4.17969273 14.56690611 4.1875 22.3125 C4.1887085 23.47761108 4.1887085 23.47761108 4.18994141 24.66625977 C4.15198756 28.56918065 3.95069422 32.18961757 3 36 C2.67 36 2.34 36 2 36 C2 29.73 2 23.46 2 17 C1.34 17 0.68 17 0 17 C-0.97771193 14.0668642 -1.13419011 12.11821006 -1.125 9.0625 C-1.12757813 8.20785156 -1.13015625 7.35320312 -1.1328125 6.47265625 C-1.00930254 4.17319148 -0.64420687 2.20359652 0 0 Z " fill="#C08C5D" transform="translate(147,75)"/>
  <path d="M0 0 C9.41002278 -0.3690205 9.41002278 -0.3690205 14 2 C14 2.66 14 3.32 14 4 C14.99 4 15.98 4 17 4 C19.1875 7 19.1875 7 21 10 C20.67 10.66 20.34 11.32 20 12 C18.66666667 12 17.33333333 12 16 12 C15.38125 11.05125 14.7625 10.1025 14.125 9.125 C11.73450888 5.54506928 11.73450888 5.54506928 8 4 C5.33266101 3.56399267 2.69282932 3.26928293 0 3 C0 2.01 0 1.02 0 0 Z " fill="#C2925F" transform="translate(469,87)"/>
  <path d="M0 0 C2.61289776 3.00166801 3.36930244 4.79627311 3.29296875 8.765625 C3.28330078 9.65507813 3.27363281 10.54453125 3.26367188 11.4609375 C3.23853516 12.38132812 3.21339844 13.30171875 3.1875 14.25 C3.16719727 15.65378906 3.16719727 15.65378906 3.14648438 17.0859375 C3.11119954 19.39121327 3.06190281 21.6953106 3 24 C3.66 24 4.32 24 5 24 C5.33 26.97 5.66 29.94 6 33 C0.44496289 27.44496289 -0.21937985 18.15070198 -0.27685547 10.65234375 C-0.23812777 7.0978456 -0.14351181 3.55191735 0 0 Z " fill="#C08B5D" transform="translate(601,88)"/>
  <path d="M0 0 C6.74483979 2.24827993 10.86775237 9.53400098 15 15 C14.67 15.66 14.34 16.32 14 17 C13.22076172 16.29423828 13.22076172 16.29423828 12.42578125 15.57421875 C8.01299951 11.60820211 8.01299951 11.60820211 3.0625 8.375 C1 7 1 7 0.1875 4.4375 C0 2 0 2 0 0 Z " fill="#C9A67C" transform="translate(547,43)"/>
  <path d="M0 0 C5.88898214 2.72494568 11.64993957 7.41656594 15 13 C14.75 16.3125 14.75 16.3125 14 19 C10.87459754 15.11515395 7.7993036 11.19459332 4.75 7.25 C4.29109375 6.66089844 3.8321875 6.07179688 3.359375 5.46484375 C0 1.1156529 0 1.1156529 0 0 Z " fill="#C59969" transform="translate(551,52)"/>
  <path d="M0 0 C0.66 0 1.32 0 2 0 C2 6.27 2 12.54 2 19 C1.01 19.33 0.02 19.66 -1 20 C-0.67 13.4 -0.34 6.8 0 0 Z " fill="#C4A375" transform="translate(147,92)"/>
  <path d="M0 0 C0.721875 0.12375 1.44375 0.2475 2.1875 0.375 C0.87124806 4.32375582 -0.86615398 4.92492713 -4.375 7.0625 C-5.38691406 7.68511719 -6.39882812 8.30773437 -7.44140625 8.94921875 C-8.22386719 9.41972656 -9.00632813 9.89023437 -9.8125 10.375 C-5.20340065 0.69378675 -5.20340065 0.69378675 0 0 Z " fill="#C38F5D" transform="translate(229.8125,23.625)"/>
  <path d="M0 0 C0.33 0 0.66 0 1 0 C1.12117187 1.00160156 1.24234375 2.00320312 1.3671875 3.03515625 C1.53617151 4.3776403 1.70545858 5.72008623 1.875 7.0625 C1.95363281 7.71927734 2.03226563 8.37605469 2.11328125 9.05273438 C2.68717487 13.5335192 3.66407776 17.68351175 5 22 C2.34534387 19.59816826 0.56176703 17.23001818 -1 14 C-1.07421875 10.44921875 -1.07421875 10.44921875 -0.6875 6.6875 C-0.50767578 4.80611328 -0.50767578 4.80611328 -0.32421875 2.88671875 C-0.21722656 1.93410156 -0.11023438 0.98148437 0 0 Z " fill="#852D2A" transform="translate(227,119)"/>
  <path d="M0 0 C2.94751667 2.74423966 5.22773678 5.36219655 7 9 C6.67 9.99 6.34 10.98 6 12 C3.37591634 9.62582907 1.61386598 7.15088121 0 4 C0 2.68 0 1.36 0 0 Z " fill="#BE9167" transform="translate(491,86)"/>
  <path d="M0 0 C4 0 4 0 6 1 C6 3.31 6 5.62 6 8 C4.68 7.67 3.36 7.34 2 7 C1.34 4.69 0.68 2.38 0 0 Z " fill="#CBA473" transform="translate(108,88)"/>
  <path d="M0 0 C0 3.57493773 -1.12816094 4.98049241 -3.421875 7.63671875 C-6.04245294 9.90053484 -8.63843232 10.34086908 -12 11 C-8.19588166 7.08060535 -4.18423892 3.50897269 0 0 Z " fill="#C1A070" transform="translate(225,25)"/>
  <path d="M0 0 C-1.31860889 4.61513112 -3.21355437 8.09897612 -6 12 C-7 10 -7 10 -6.51171875 7.87109375 C-6.23972656 7.06800781 -5.96773437 6.26492187 -5.6875 5.4375 C-5.42324219 4.63183594 -5.15898438 3.82617188 -4.88671875 2.99609375 C-3.72050221 0.37082215 -2.83976396 0 0 0 Z " fill="#87312C" transform="translate(527,129)"/>
  <path d="M0 0 C0.66 0.33 1.32 0.66 2 1 C0.5682479 6.01113235 -1.98445693 7.94469549 -6 11 C-4.74194623 6.49197399 -3.09592835 3.5087188 0 0 Z " fill="#C7A06F" transform="translate(650,75)"/>
  <path d="M0 0 C0.36923077 5.53846154 0.36923077 5.53846154 -1.5 7.875 C-2.2425 8.431875 -2.2425 8.431875 -3 9 C-3.99 8.67 -4.98 8.34 -6 8 C-2.8 0 -2.8 0 0 0 Z " fill="#CEAA82" transform="translate(205,43)"/>
  <path d="M0 0 C-0.125 1.875 -0.125 1.875 -1 4 C-4.0625 5.25 -4.0625 5.25 -7 6 C-6.625 3.5625 -6.625 3.5625 -6 1 C-4 0 -4 0 0 0 Z " fill="#C18E5D" transform="translate(97,122)"/>
  <path d="M0 0 C-1.3125 1.5 -1.3125 1.5 -3 3 C-3.99 3 -4.98 3 -6 3 C-6.66 4.65 -7.32 6.3 -8 8 C-8.33 8 -8.66 8 -9 8 C-9.36585366 3.48780488 -9.36585366 3.48780488 -7.6875 1.25 C-4.77156235 -0.90995382 -3.45696967 -1.15232322 0 0 Z " fill="#C7A47E" transform="translate(268,84)"/>
  <path d="M0 0 C0 3 0 3 -1.96875 5.26171875 C-2.8040625 6.06222656 -3.639375 6.86273438 -4.5 7.6875 C-5.3353125 8.49574219 -6.170625 9.30398437 -7.03125 10.13671875 C-7.6809375 10.75160156 -8.330625 11.36648437 -9 12 C-9.66 11.67 -10.32 11.34 -11 11 C-7.6189962 6.86378916 -4.33409466 3.18683431 0 0 Z " fill="#862930" transform="translate(239,67)"/>
  <path d="M0 0 C3.3 0.33 6.6 0.66 10 1 C10 1.99 10 2.98 10 4 C6.37 3.34 2.74 2.68 -1 2 C-0.67 1.34 -0.34 0.68 0 0 Z " fill="#C6905D" transform="translate(641,146)"/>
  <path d="M0 0 C0 3 0 3 -1.5 4.6875 C-1.995 5.120625 -2.49 5.55375 -3 6 C-2.67 6.66 -2.34 7.32 -2 8 C-4.64 8.33 -7.28 8.66 -10 9 C-7.86474649 6.8121864 -5.6425721 4.79086311 -3.3125 2.8125 C-2.68988281 2.28269531 -2.06726563 1.75289063 -1.42578125 1.20703125 C-0.95527344 0.80871094 -0.48476562 0.41039063 0 0 Z " fill="#606335" transform="translate(95,108)"/>
  <path d="M0 0 C0.99 0.33 1.98 0.66 3 1 C1.71064081 2.14842923 0.41843421 3.29366227 -0.875 4.4375 C-1.59429687 5.07558594 -2.31359375 5.71367188 -3.0546875 6.37109375 C-5 8 -5 8 -7 9 C-6.4568634 5.19804378 -4.84334437 3.49869657 -2 1 C-1.34 0.67 -0.68 0.34 0 0 Z " fill="#C0885B" transform="translate(217,34)"/>
  <path d="M0 0 C2.35981813 0.93578995 4.69631264 1.93347808 7 3 C7 3.99 7 4.98 7 6 C0.25 3.25 0.25 3.25 -2 1 C-1.34 0.67 -0.68 0.34 0 0 Z " fill="#C38C59" transform="translate(655,122)"/>
  <path d="M0 0 C3.35915158 1.43963639 5.71624938 3.12416589 8 6 C7.60546875 8.1328125 7.60546875 8.1328125 7 10 C5.83043409 8.52312468 4.66441854 7.04343707 3.5 5.5625 C2.8503125 4.73878906 2.200625 3.91507813 1.53125 3.06640625 C0 1 0 1 0 0 Z " fill="#C48D5C" transform="translate(551,52)"/>
  <path d="M0 0 C0.99 0.33 1.98 0.66 3 1 C1.02 3.97 1.02 3.97 -1 7 C-1.99 6.67 -2.98 6.34 -4 6 C-1.125 1.125 -1.125 1.125 0 0 Z " fill="#C29160" transform="translate(198,51)"/>
  <path d="M0 0 C3.55060608 0.60867533 6.83461241 1.24145134 10 3 C10.8125 5.625 10.8125 5.625 11 8 C10.45730469 7.59007813 9.91460937 7.18015625 9.35546875 6.7578125 C8.64003906 6.21898438 7.92460937 5.68015625 7.1875 5.125 C6.47980469 4.59132813 5.77210938 4.05765625 5.04296875 3.5078125 C3.39543703 2.29185219 1.70375789 1.13583859 0 0 Z " fill="#C4A279" transform="translate(480,81)"/>
  <path d="M0 0 C0.66 0.33 1.32 0.66 2 1 C0.75965588 2.32162881 -0.49268626 3.63200453 -1.75 4.9375 C-2.44609375 5.66839844 -3.1421875 6.39929688 -3.859375 7.15234375 C-6.00599725 9.00517646 -7.23532932 9.60771565 -10 10 C-3.84965831 2.51708428 -3.84965831 2.51708428 0 0 Z " fill="#C5A677" transform="translate(233,60)"/>
  <path d="M0 0 C0.33 1.32 0.66 2.64 1 4 C-0.98 5.32 -2.96 6.64 -5 8 C-5.66 7.67 -6.32 7.34 -7 7 C-4.69 4.69 -2.38 2.38 0 0 Z " fill="#C49C6E" transform="translate(138,127)"/>
  <path d="M0 0 C0.93065133 2.60582371 1.14917407 3.64198224 0.0625 6.25 C-0.4634375 7.11625 -0.4634375 7.11625 -1 8 C-1.99 8 -2.98 8 -4 8 C-2.87548273 5.0280615 -1.77706209 2.66559313 0 0 Z " fill="#BE8E64" transform="translate(258,89)"/>
  <path d="M0 0 C2.475 0.495 2.475 0.495 5 1 C5 2.65 5 4.3 5 6 C3.2925002 4.71937515 1.62626404 3.38232443 0 2 C0 1.34 0 0.68 0 0 Z " fill="#BE8B5F" transform="translate(537,37)"/>
  <path d="M0 0 C3.875 1.75 3.875 1.75 5 4 C3.02 4 1.04 4 -1 4 C-1.33 3.34 -1.66 2.68 -2 2 C-1.34 2 -0.68 2 0 2 C0 1.34 0 0.68 0 0 Z " fill="#BB955E" transform="translate(661,116)"/>
</svg>
